#!OML:ASF \\sashay\E\Suitcase\Project 1\Capture day 1\Session 1\Male1.ASF
:FULLY-SPECIFIED
:DEGREES
290
root -1.04924 17.5955 9.45738 6.88517 3.80899 -2.25357
lowerback 4.08244 -0.0549542 5.49939
upperback 2.04003 0.163506 5.78981
thorax -0.186673 0.0937653 2.88463
lowerneck -13.4047 -3.53986 -6.00734
upperneck 16.3327 -2.59736 -5.19875
head 7.27248 -2.08839 -0.978438
rclavicle 3.18055e-015 -3.02153e-014
rhumerus -27.8034 -10.1914 -64.6664
rradius 21.1181
rwrist -12.4207
rhand -9.50358 14.0198
rfingers 7.12502
rthumb 16.4616 -15.3018
lclavicle 3.18055e-015 -3.02153e-014
lhumerus -32.0581 -6.93697 91.8817
lradius 41.3651
lwrist 0.0225807
lhand 0.480351 42.7661
lfingers 7.12502
lthumb 26.0504 71
rfemur -8.42754 -1.9283 24.797
rtibia 13.6964
rfoot -11.9818 -13.6277
rtoes 15.4442
lfemur -10.7208 -2.6257 -14.6583
ltibia 18.4787
lfoot -13.7806 2.25514
ltoes 3.2434
291
root -1.03793 17.5963 9.45997 6.92329 4.1476 -1.93355
lowerback 4.11386 -0.0938184 5.24775
upperback 1.74559 0.128257 5.62484
thorax -0.509428 0.0697905 2.85419
lowerneck -13.1336 -3.51988 -6.19241
upperneck 16.1576 -2.55538 -5.24835
head 7.17149 -2.07484 -0.95223
rclavicle -1.03368e-014 0
rhumerus -28.2831 -10.013 -64.7579
rradius 21.175
rwrist -12.9275
rhand -10.0478 14.6066
rfingers 7.12502
rthumb 15.9376 -14.7576
lclavicle -1.03368e-014 0
lhumerus -32.5173 -7.05112 91.9514
lradius 41.3118
lwrist 0.0153776
lhand 0.592881 42.9744
lfingers 7.12502
lthumb 26.1581 71.1923
rfemur -8.40975 -2.49848 24.4314
rtibia 13.7025
rfoot -12.0128 -13.4511
rtoes 15.5425
lfemur -10.7485 -2.73756 -15.0398
ltibia 18.4297
lfoot -13.8014 2.04347
ltoes 3.00784
292
root -1.04486 17.5957 9.47465 6.83469 4.38422 -2.05679
lowerback 4.14265 -0.0340292 5.17785
upperback 1.53799 0.224973 5.65489
thorax -0.741827 0.114038 2.92022
lowerneck -13.0187 -3.55787 -6.4498
upperneck 16.0637 -2.5588 -5.30272
head 7.1264 -2.09212 -0.925428
rclavicle 6.75868e-015 -5.56597e-014
rhumerus -28.5829 -9.89809 -64.6816
rradius 20.9551
rwrist -13.102
rhand -9.79379 13.9965
rfingers 7.12502
rthumb 16.1822 -15.348
lclavicle 6.75868e-015 -5.56597e-014
lhumerus -33.0481 -7.29841 92.1846
lradius 41.4296
lwrist 0.108122
lhand 0.262229 43.1246
lfingers 7.12502
lthumb 25.8415 71.389
rfemur -8.20501 -2.26877 24.6098
rtibia 13.6323
rfoot -12.1537 -13.9027
rtoes 15.6958
lfemur -10.6392 -2.81264 -14.8545
ltibia 18.4019
lfoot -13.8775 1.91868
ltoes 2.87135
293
root -1.04693 17.5955 9.47254 6.93768 4.34713 -2.03916
lowerback 4.12626 0.00467886 5.04163
upperback 1.31812 0.284358 5.49406
thorax -0.960778 0.139865 2.82577
lowerneck -12.95 -3.4343 -6.2169
upperneck 15.9068 -2.41825 -5.49954
head 7.05604 -2.02192 -1.00825
rclavicle 1.47101e-014 -2.54444e-014
rhumerus -28.7912 -9.90013 -65.0512
rradius 21.0823
rwrist -13.268
rhand -10.2146 13.5938
rfingers 7.12502
rthumb 15.777 -15.7832
lclavicle 1.47101e-014 -2.54444e-014
lhumerus -33.2634 -7.2966 91.9281
lradius 41.2976
lwrist 0.193703
lhand 0.0788269 42.9464
lfingers 7.12502
lthumb 25.6659 71.2362
rfemur -8.39486 -2.10983 24.6014
rtibia 13.726
rfoot -12.1688 -14.0357
rtoes 15.5186
lfemur -10.7241 -2.85732 -14.8612
ltibia 18.3175
lfoot -13.8253 2.00008
ltoes 2.83485
294
root -1.04192 17.5967 9.48165 6.90575 4.60947 -1.8779
lowerback 4.03484 0.0919257 4.94236
upperback 1.24957 0.392547 5.39112
thorax -0.981793 0.193531 2.76862
lowerneck -13.251 -3.51911 -6.4455
upperneck 15.8947 -2.44548 -5.56737
head 7.10969 -2.05812 -1.00282
rclavicle -2.78299e-014 3.18055e-014
rhumerus -29.0203 -10.3491 -64.8153
rradius 21.1335
rwrist -13.1435
rhand -10.1837 13.4523
rfingers 7.12502
rthumb 15.8068 -15.9224
lclavicle -2.78299e-014 3.18055e-014
lhumerus -33.2513 -7.38593 92.062
lradius 40.8456
lwrist 0.168339
lhand 1.00413 43.4732
lfingers 7.12502
lthumb 26.5518 71.6322
rfemur -8.29685 -2.38251 24.4247
rtibia 13.749
rfoot -12.2567 -14.0556
rtoes 15.1709
lfemur -10.6477 -2.87876 -15.0472
ltibia 18.2638
lfoot -13.8981 1.75283
ltoes 2.79016
295
root -1.04228 17.5968 9.48576 6.96308 4.72641 -1.79643
lowerback 3.81427 0.0745394 4.77796
upperback 1.22255 0.343637 5.22533
thorax -0.885577 0.170165 2.69018
lowerneck -13.4683 -3.39922 -6.1201
upperneck 15.6916 -2.30132 -5.79665
head 7.0724 -1.98588 -1.11553
rclavicle 1.78906e-014 -4.77083e-015
rhumerus -28.8827 -9.77722 -65.3959
rradius 21.0198
rwrist -14.1005
rhand -10.6395 13.8859
rfingers 7.12502
rthumb 15.3677 -15.523
lclavicle 1.78906e-014 -4.77083e-015
lhumerus -33.3422 -6.99675 91.7239
lradius 40.9929
lwrist -0.106642
lhand 1.80498 43.3702
lfingers 7.12502
lthumb 27.3181 71.4109
rfemur -8.42112 -2.32099 24.3537
rtibia 13.9172
rfoot -12.3726 -14.246
rtoes 14.8703
lfemur -10.6471 -2.92455 -15.1197
ltibia 18.1354
lfoot -13.8886 1.68
ltoes 2.59458
296
root -1.03843 17.5958 9.49535 6.93353 4.996 -1.70019
lowerback 3.5067 0.0802362 4.63719
upperback 1.29887 0.314193 5.15065
thorax -0.63457 0.158683 2.69256
lowerneck -13.6142 -3.39706 -6.12833
upperneck 15.3838 -2.27727 -5.93522
head 6.99676 -1.97795 -1.15459
rclavicle -1.98785e-015 -2.38542e-014
rhumerus -28.7124 -10.1022 -65.459
rradius 20.8978
rwrist -13.9233
rhand -10.9623 13.3824
rfingers 7.12502
rthumb 15.0568 -16.0501
lclavicle -1.98785e-015 -2.38542e-014
lhumerus -33.3384 -7.01035 91.7095
lradius 41.1698
lwrist 0.0962484
lhand 1.70668 44.1595
lfingers 7.12502
lthumb 27.224 72.2149
rfemur -8.34875 -2.68988 24.2605
rtibia 13.9526
rfoot -12.4242 -14.1838
rtoes 14.5356
lfemur -10.5667 -2.96297 -15.2244
ltibia 18.0511
lfoot -13.9511 1.46678
ltoes 2.27828
297
root -1.0358 17.5967 9.49961 6.92619 5.25822 -1.44438
lowerback 3.19803 0.0611625 4.38591
upperback 1.36184 0.249923 4.98008
thorax -0.396458 0.129091 2.65839
lowerneck -13.4862 -3.38222 -6.12162
upperneck 14.9462 -2.28353 -6.01736
head 6.8313 -1.96956 -1.17276
rclavicle -3.97569e-016 -3.81667e-014
rhumerus -28.4902 -10.2246 -65.688
rradius 20.8227
rwrist -13.9951
rhand -11.2427 12.9698
rfingers 7.12502
rthumb 14.7866 -16.4827
lclavicle -3.97569e-016 -3.81667e-014
lhumerus -33.372 -6.81146 91.4712
lradius 41.1189
lwrist -0.583145
lhand 2.2082 43.7029
lfingers 7.12502
lthumb 27.7037 71.6822
rfemur -8.31588 -2.86793 23.9939
rtibia 14.0368
rfoot -12.513 -14.3123
rtoes 14.2981
lfemur -10.5153 -3.07747 -15.4999
ltibia 17.9826
lfoot -13.9975 1.32652
ltoes 1.92562
298
root -1.04756 17.5931 9.51203 6.75305 5.14579 -1.7767
lowerback 3.098 0.246757 4.45783
upperback 1.42881 0.487149 5.0581
thorax -0.274673 0.249239 2.69161
lowerneck -13.4222 -3.49178 -6.39745
upperneck 14.6801 -2.39365 -6.0397
head 6.73954 -2.02863 -1.14136
rclavicle -2.0276e-014 -2.8625e-014
rhumerus -28.4153 -10.4765 -65.6855
rradius 20.7248
rwrist -14.1404
rhand -11.4657 12.4251
rfingers 7.12502
rthumb 14.5719 -17.043
lclavicle -2.0276e-014 -2.8625e-014
lhumerus -33.3146 -7.21441 91.6259
lradius 40.8051
lwrist -0.263572
lhand 2.20911 44.2174
lfingers 7.12502
lthumb 27.7046 72.1966
rfemur -8.08859 -2.09652 24.4084
rtibia 13.95
rfoot -12.55 -14.9565
rtoes 14.2129
lfemur -10.3385 -2.85634 -15.0826
ltibia 17.9989
lfoot -14.1037 1.26317
ltoes 1.64369
299
root -1.07972 17.5918 9.51909 6.88727 4.89911 -1.7166
lowerback 2.81862 0.47932 3.79695
upperback 1.43802 0.757748 5.10373
thorax -0.122283 0.382966 3.10249
lowerneck -13.526 -3.60363 -6.63585
upperneck 14.5232 -2.48247 -6.11649
head 6.71141 -2.08637 -1.13686
rclavicle 6.75868e-015 1.59028e-015
rhumerus -28.2591 -10.8591 -65.5968
rradius 20.5422
rwrist -14.2343
rhand -11.4988 12.4984
rfingers 7.12502
rthumb 14.54 -16.9721
lclavicle 6.75868e-015 1.59028e-015
lhumerus -33.298 -6.91164 91.6572
lradius 40.6978
lwrist -0.278972
lhand 0.954676 43.1416
lfingers 7.12502
lthumb 26.5045 71.3077
rfemur -8.30895 -0.835934 24.4563
rtibia 14.0263
rfoot -12.628 -15.9598
rtoes 14.325
lfemur -10.4532 -2.71437 -15.023
ltibia 17.8977
lfoot -14.0315 1.34579
ltoes 1.45958
300
root -1.07235 17.5912 9.53375 6.78396 5.05145 -2.04347
lowerback 2.59038 0.475808 4.21567
upperback 1.48784 0.741898 5.04242
thorax 0.0639496 0.378962 2.8072
lowerneck -13.7437 -3.595 -6.5313
upperneck 14.4955 -2.44492 -6.27986
head 6.73668 -2.07875 -1.20666
rclavicle 1.98785e-014 1.27222e-014
rhumerus -28.2289 -10.8927 -65.8937
rradius 20.6096
rwrist -14.6697
rhand -11.8988 12.7528
rfingers 7.12502
rthumb 14.1546 -16.745
lclavicle 1.98785e-014 1.27222e-014
lhumerus -33.4577 -7.00973 91.4752
lradius 40.825
lwrist -0.503465
lhand 2.34994 44.0617
lfingers 7.12502
lthumb 27.8392 72.0192
rfemur -8.07386 -1.13209 24.8088
rtibia 13.8612
rfoot -12.5346 -15.8406
rtoes 13.846
lfemur -10.3659 -2.67135 -14.6846
ltibia 17.9829
lfoot -14.2019 1.21308
ltoes 1.35464
301
root -1.07449 17.5938 9.53317 6.9722 5.25933 -1.51855
lowerback 2.43774 0.468445 3.56521
upperback 1.34799 0.715767 4.87136
thorax -0.000656719 0.362264 2.9947
lowerneck -13.8882 -3.59096 -6.48685
upperneck 14.5421 -2.39218 -6.50752
head 6.77472 -2.07461 -1.28608
rclavicle -4.37326e-015 -2.06736e-014
rhumerus -28.2576 -10.7536 -65.9993
rradius 20.5423
rwrist -14.9696
rhand -11.8879 12.0083
rfingers 7.12502
rthumb 14.165 -17.4888
lclavicle -4.37326e-015 -2.06736e-014
lhumerus -33.6313 -6.99911 91.427
lradius 40.5782
lwrist -0.48107
lhand 2.33338 44.175
lfingers 7.12502
lthumb 27.8234 72.135
rfemur -8.27578 -1.24285 24.2629
rtibia 13.9377
rfoot -12.5527 -16.006
rtoes 13.6291
lfemur -10.5607 -2.83718 -15.2396
ltibia 17.94
lfoot -14.1753 1.1285
ltoes 1.27457
302
root -1.07753 17.5891 9.54936 6.74392 5.39903 -2.00305
lowerback 2.20261 0.491714 3.86185
upperback 1.53804 0.724032 4.99911
thorax 0.329156 0.370453 2.96474
lowerneck -14.2624 -3.58254 -6.3782
upperneck 14.516 -2.32525 -6.76172
head 6.82744 -2.06357 -1.38668
rclavicle -5.1684e-015 -5.08889e-014
rhumerus -28.0032 -10.614 -66.2257
rradius 20.5957
rwrist -15.1025
rhand -12.197 11.8067
rfingers 7.12502
rthumb 13.8672 -17.711
lclavicle -5.1684e-015 -5.08889e-014
lhumerus -33.631 -6.71741 91.3212
lradius 40.6164
lwrist -0.887811
lhand 1.81847 43.7163
lfingers 7.12502
lthumb 27.331 71.755
rfemur -7.99884 -1.1838 24.8255
rtibia 13.9206
rfoot -12.6494 -16.188
rtoes 13.5265
lfemur -10.3277 -2.69779 -14.6841
ltibia 17.9266
lfoot -14.29 0.895198
ltoes 1.23181
